# xmcd
#
# Track frame offsets: 
#        182
#        20027
#        31812
#        47207
#        62312
#        76247
#        89012
#        105270
#        125572
#        137525
#        151697
#        165645
#        178970
#        192760
#        208885
#        223920
#
# Disc length: 3116 seconds
#
# Revision: 1
# Processed by: cddbd v1.5.2PL0 Copyright (c) Steve Scherf et al.
# Submitted via: ExactAudioCopy v1.3
#
DISCID=d90c2a10
DTITLE=Gracie Fields - Gracie Fields
DYEAR=1989
DGENRE=Humour
TTITLE0=Sally
TTITLE1=Our Avenue
TTITLE2=A Foggy Day
TTITLE3=I Never Cried So Much
TTITLE4=Three Green Bonents
TTITLE5=Lancashire Blues
TTITLE6=Home
TTITLE7=The Rochdale Hounds
TTITLE8=Love Is Everywhere
TTITLE9=He's Dead But He Won't Lie Down
TTITLE10=Whistle While You Work
TTITLE11=Because I Love You
TTITLE12=In My Little Bottom Drawer
TTITLE13=Out In The Cold Cold Snow
TTITLE14=Ave Maria
TTITLE15=Sing As We Go
EXTD=YEAR: 1989
EXTT0=
EXTT1=
EXTT2=
EXTT3=
EXTT4=
EXTT5=
EXTT6=
EXTT7=
EXTT8=
EXTT9=
EXTT10=
EXTT11=
EXTT12=
EXTT13=
EXTT14=
EXTT15=
PLAYORDER=
